<svg xmlns="http://www.w3.org/2000/svg" xmlns:xlink="http://www.w3.org/1999/xlink" viewBox="0 0 50 50" version="1.1">
<g id="surface1">
<path style=" " d="M 36 8 C 34.519531 8 33.222656 8.824219 32.53125 10.03125 C 31.023438 10.246094 29.4375 11.449219 27.90625 12.625 C 26.925781 13.375 25.917969 14.160156 25.15625 14.46875 C 25.128906 14.480469 25.023438 14.53125 24.71875 14.53125 C 24.265625 14.53125 23.648438 14.4375 22.9375 14.34375 C 21.941406 14.210938 20.703125 14.0625 19.375 14.0625 C 13.523438 14.0625 9.347656 17.363281 6.59375 24.15625 C 5.59375 24.980469 2 28.105469 2 30.90625 C 2 33.882813 4.292969 35.253906 6.59375 36 C 5.539063 36.617188 5 37.28125 5 38 C 5 40.078125 5.929688 41 28 41 L 28.03125 41 C 28.585938 41 29.03125 40.554688 29.03125 40 C 29.03125 39.605469 28.800781 39.257813 28.46875 39.09375 L 26.46875 37.71875 L 26.5 37.6875 C 23.089844 37.949219 19.050781 38 15 38 C 14.867188 38 14.742188 37.984375 14.625 37.9375 C 14.582031 37.917969 14.539063 37.867188 14.5 37.84375 C 14.433594 37.804688 14.367188 37.773438 14.3125 37.71875 C 14.273438 37.683594 14.25 37.636719 14.21875 37.59375 C 14.175781 37.539063 14.125 37.503906 14.09375 37.4375 C 14.070313 37.386719 14.078125 37.304688 14.0625 37.25 C 14.046875 37.195313 14.003906 37.148438 14 37.09375 C 14 37.078125 14 37.078125 14 37.0625 C 13.996094 37.042969 14 37.019531 14 37 C 14 36.945313 14.023438 36.894531 14.03125 36.84375 C 14.042969 36.777344 14.039063 36.714844 14.0625 36.65625 C 14.085938 36.59375 14.121094 36.554688 14.15625 36.5 C 14.1875 36.445313 14.210938 36.390625 14.25 36.34375 C 14.292969 36.292969 14.355469 36.257813 14.40625 36.21875 C 14.457031 36.179688 14.503906 36.121094 14.5625 36.09375 C 14.621094 36.066406 14.683594 36.078125 14.75 36.0625 C 14.800781 36.050781 14.855469 36.003906 14.90625 36 C 16.488281 35.839844 21 34.902344 21 32.78125 C 21 30.964844 18.621094 28.355469 11.90625 26.96875 C 11.367188 26.855469 11.011719 26.320313 11.125 25.78125 C 11.238281 25.242188 11.769531 24.890625 12.3125 25 C 22.234375 27.050781 23 31.472656 23 32.78125 C 23 34.160156 22.269531 35.183594 21.25 35.9375 C 23.40625 35.882813 25.683594 35.761719 27.6875 35.5625 C 27.273438 34.832031 27 34.261719 27 34 C 27 33.945313 27.003906 33.851563 27 33.75 C 26.949219 32.71875 26.804688 30 28.0625 26.65625 C 28.257813 26.140625 28.828125 25.867188 29.34375 26.0625 C 29.859375 26.257813 30.132813 26.828125 29.9375 27.34375 C 28.824219 30.296875 28.921875 32.738281 28.96875 33.65625 C 28.972656 33.710938 28.996094 33.765625 29 33.8125 C 29.195313 34.238281 29.953125 35.527344 30.875 36.875 C 32.222656 38.554688 33.660156 40.167969 34.34375 40.75 C 34.464844 40.855469 34.625 40.933594 34.78125 40.96875 C 34.917969 41 35.070313 41.03125 35.21875 41.03125 C 35.578125 41.03125 35.988281 40.941406 36.5 40.84375 C 37.882813 40.582031 39.949219 40.195313 42.71875 40.96875 C 43.246094 41.121094 43.820313 40.8125 43.96875 40.28125 C 44.117188 39.75 43.8125 39.179688 43.28125 39.03125 C 41.023438 38.398438 39.152344 38.449219 37.71875 38.625 C 37.714844 38.621094 37.691406 38.597656 37.6875 38.59375 C 37.667969 38.609375 37.675781 38.644531 37.65625 38.65625 C 37.484375 38.769531 37.285156 38.8125 37.09375 38.8125 C 36.769531 38.8125 36.441406 38.664063 36.25 38.375 C 34.210938 35.316406 33.109375 32.496094 33.0625 32.375 C 33 32.21875 32.976563 32.042969 33 31.875 L 33.1875 30.625 C 33.261719 30.078125 33.761719 29.675781 34.3125 29.75 C 34.859375 29.824219 35.230469 30.328125 35.15625 30.875 L 35.03125 31.875 C 35.105469 32.054688 35.214844 32.332031 35.375 32.6875 C 39.167969 29.316406 39.820313 25.605469 40.34375 22.59375 C 40.492188 21.742188 40.644531 20.941406 40.84375 20.21875 C 41.890625 19.535156 42.890625 18.917969 43.78125 18.375 C 46.597656 16.652344 48 15.796875 48 14.53125 C 48 12.449219 43.601563 10.183594 39.4375 10.03125 C 38.742188 8.832031 37.476563 8 36 8 Z M 36 10 C 37.117188 10 38 10.882813 38 12 C 38 13.117188 37.117188 14 36 14 C 34.882813 14 34 13.117188 34 12 C 34 10.882813 34.882813 10 36 10 Z M 38 12 C 38 11.449219 37.550781 11 37 11 C 36.449219 11 36 11.449219 36 12 C 36 12.550781 36.449219 13 37 13 C 37.550781 13 38 12.550781 38 12 Z "></path>
</g>
</svg>
