<svg xmlns="http://www.w3.org/2000/svg" xmlns:xlink="http://www.w3.org/1999/xlink" viewBox="0 0 50 50" version="1.1">
<g id="surface1">
<path style=" " d="M 8.9375 0 C 8.808594 0.0078125 8.6875 0.03125 8.5625 0.09375 C 8.070313 0.339844 7.847656 0.945313 8.09375 1.4375 L 12.09375 9.4375 L 14.84375 12.625 C 15.121094 11.96875 15.445313 11.363281 15.84375 10.78125 L 13.84375 8.4375 L 9.90625 0.5625 C 9.722656 0.191406 9.328125 -0.0234375 8.9375 0 Z M 41.0625 0 C 40.671875 -0.0234375 40.28125 0.191406 40.09375 0.5625 L 36.15625 8.4375 L 34.15625 10.78125 C 34.558594 11.367188 34.910156 11.996094 35.1875 12.65625 L 37.75 9.65625 L 41.90625 1.4375 C 42.152344 0.945313 41.929688 0.339844 41.4375 0.09375 C 41.3125 0.03125 41.191406 0.0078125 41.0625 0 Z M 23 6 C 22.066406 6 20.53125 6.488281 20.125 9.40625 C 17.644531 10.960938 16 13.652344 16 16.71875 C 16 18.15625 16.375 19.757813 17.03125 21.3125 C 19.265625 19.808594 22.152344 19 25 19 C 27.847656 19 30.734375 19.808594 32.96875 21.3125 C 33.625 19.757813 34 18.15625 34 16.71875 C 34 13.652344 32.355469 10.960938 29.875 9.40625 C 29.46875 6.488281 27.929688 6 27 6 L 26 6 L 26 8.0625 C 25.667969 8.027344 25.34375 8 25 8 C 24.65625 8 24.332031 8.027344 24 8.0625 L 24 6 Z M 1.09375 13 C 0.707031 12.957031 0.324219 13.136719 0.125 13.5 C -0.144531 13.980469 0.015625 14.605469 0.5 14.875 L 9.75 20 L 14.46875 20 C 14.285156 19.324219 14.136719 18.652344 14.0625 18 L 10.25 18 L 1.5 13.125 C 1.378906 13.058594 1.222656 13.015625 1.09375 13 Z M 48.90625 13 C 48.777344 13.015625 48.621094 13.058594 48.5 13.125 L 39.75 18 L 35.9375 18 C 35.863281 18.652344 35.714844 19.324219 35.53125 20 L 40.25 20 L 49.5 14.875 C 49.980469 14.605469 50.144531 13.984375 49.875 13.5 C 49.675781 13.136719 49.292969 12.957031 48.90625 13 Z M 25 21 C 21.792969 21 17.367188 22.488281 15.6875 25.625 C 15.238281 26.746094 15 28.007813 15 29.375 C 15 35.214844 19.367188 42 25 42 C 30.632813 42 35 35.214844 35 29.375 C 35 28.007813 34.761719 26.746094 34.3125 25.625 C 32.632813 22.488281 28.207031 21 25 21 Z M 15.3125 22.75 L 10.53125 26.09375 L 0.625 30.0625 C 0.113281 30.265625 -0.140625 30.863281 0.0625 31.375 C 0.21875 31.769531 0.605469 32 1 32 C 1.125 32 1.253906 31.988281 1.375 31.9375 L 11.375 27.9375 L 13.1875 26.65625 C 13.324219 26.039063 13.542969 25.457031 13.8125 24.90625 C 13.816406 24.894531 13.839844 24.882813 13.84375 24.875 L 13.875 24.78125 L 13.9375 24.6875 C 13.941406 24.683594 13.933594 24.660156 13.9375 24.65625 C 14.308594 23.960938 14.757813 23.328125 15.3125 22.75 Z M 34.6875 22.75 C 35.246094 23.328125 35.691406 23.988281 36.0625 24.6875 L 36.125 24.78125 L 36.15625 24.875 C 36.160156 24.886719 36.183594 24.894531 36.1875 24.90625 C 36.460938 25.464844 36.675781 26.058594 36.8125 26.6875 L 38.4375 27.8125 L 48.625 31.9375 C 48.746094 31.988281 48.875 32 49 32 C 49.394531 32 49.78125 31.765625 49.9375 31.375 C 50.140625 30.863281 49.886719 30.265625 49.375 30.0625 L 39.46875 26.125 Z M 13.6875 33.84375 L 9.0625 38.5 L 7.03125 48.8125 C 6.921875 49.355469 7.273438 49.859375 7.8125 49.96875 C 7.878906 49.984375 7.933594 50 8 50 C 8.46875 50 8.875 49.664063 8.96875 49.1875 L 10.90625 39.5 L 14.4375 35.90625 C 14.136719 35.230469 13.898438 34.550781 13.6875 33.84375 Z M 36.3125 33.84375 C 36.101563 34.550781 35.863281 35.230469 35.5625 35.90625 L 39.0625 39.5 L 41.03125 49.1875 C 41.125 49.664063 41.535156 50 42 50 C 42.0625 50 42.121094 49.984375 42.1875 49.96875 C 42.726563 49.859375 43.078125 49.355469 42.96875 48.8125 L 40.90625 38.5 Z "></path>
</g>
</svg>
